<svg width="130" height="28" viewBox="0 0 130 28" fill="none" xmlns="http://www.w3.org/2000/svg">
<g id="Logo">
<g id="2498000578272">
<path id="Vector" fill-rule="evenodd" clip-rule="evenodd" d="M12.62 8.74868H8.01373L7.11537 17.653H11.683L12.62 8.74868ZM14.1423 8.74868L13.2053 17.653H18.7217L18.6052 18.9864H13.0872L12.1503 27.6968H10.6276L11.5645 18.9864H6.96071L6.06317 27.6968H4.54048L5.47699 18.9864H0L0.1161 17.653H5.59309L6.53 8.74868H1.01405L1.13015 7.41404H6.64854L7.38939 0.195312H8.91167L8.1688 7.41404H12.7361L13.4769 0.195312H14.9992L14.2588 7.41404H19.7772L19.6582 8.74868H14.1423Z" fill="white"/>
<path id="Vector_2" fill-rule="evenodd" clip-rule="evenodd" d="M27.3322 4.15808V23.7725H29.7529C31.1201 23.7725 31.9381 23.0675 31.9381 21.1057V6.82573C31.9381 4.86436 31.1201 4.15808 29.7529 4.15808H27.3322ZM23.041 0.235352H29.8292C34.1233 0.235352 36.2317 2.62799 36.2317 7.02239V20.909C36.2317 25.3022 34.1233 27.6969 29.8292 27.6969H23.041V0.235352Z" fill="white"/>
<path id="Vector_3" fill-rule="evenodd" clip-rule="evenodd" d="M38.9609 0.235352H43.2546V27.6969H38.9609V0.235352Z" fill="white"/>
<path id="Vector_4" fill-rule="evenodd" clip-rule="evenodd" d="M50.6675 11.8073H56.5614V15.73H50.6675V23.7725H58.0833V27.6969H46.373V0.235352H58.0833V4.15808H50.6675V11.8073Z" fill="white"/>
<path id="Vector_5" fill-rule="evenodd" clip-rule="evenodd" d="M72.6379 0.235352V4.07974L64.4805 23.7725H72.6379V27.6969H60.0703V23.8521L68.2277 4.15808H60.46V0.235352H72.6379Z" fill="white"/>
<path id="Vector_6" fill-rule="evenodd" clip-rule="evenodd" d="M79.8946 27.6969V1.88335H74.3125V0.235352H87.2312V1.88335H81.6901V27.6969H79.8946Z" fill="white"/>
<path id="Vector_7" fill-rule="evenodd" clip-rule="evenodd" d="M98.8189 12.9452V14.5932H91.3646V26.0485H100.342V27.6969H89.5703V0.235352H100.342V1.88335H91.3646V12.9452H98.8189Z" fill="white"/>
<path id="Vector_8" fill-rule="evenodd" clip-rule="evenodd" d="M114.937 6.9425V9.21885H113.219V6.8258C113.219 3.88315 112.086 1.64678 109.082 1.64678C106.076 1.64678 104.946 3.88356 104.946 6.8258V21.1058C104.946 24.0472 106.076 26.2436 109.082 26.2436C112.086 26.2436 113.219 24.0472 113.219 21.1058V17.8497H114.937V20.9874C114.937 24.9506 113.219 27.9316 109.043 27.9316C104.865 27.9316 103.15 24.9506 103.15 20.9874L103.151 6.9425C103.151 2.98142 104.865 0 109.043 0C113.219 0 114.937 2.98142 114.937 6.9425Z" fill="white"/>
<path id="Vector_9" fill-rule="evenodd" clip-rule="evenodd" d="M119.656 14.7887V27.6969H117.861V0.235352H119.656V13.1419H128.165V0.235352H130.001V27.6969H128.165V14.7887H119.656Z" fill="white"/>
</g>
</g>
</svg>
