<svg width="150" height="33" viewBox="0 0 150 33" fill="none" xmlns="http://www.w3.org/2000/svg">
<path fill-rule="evenodd" clip-rule="evenodd" d="M14.5615 10.0947H9.2466L8.21004 20.3689H13.4804L14.5615 10.0947ZM16.318 10.0947L15.2369 20.3689H21.6019L21.4675 21.9074H15.1006L14.0196 31.958H12.2626L13.3437 21.9074H8.03158L6.99596 31.958H5.23901L6.3196 21.9074H0L0.133961 20.3689H6.45356L7.53462 10.0947H1.17005L1.30401 8.55477H7.67139L8.52621 0.225471H10.2827L9.42553 8.55477H14.6955L15.5503 0.225471H17.3068L16.4524 8.55477H22.8198L22.6825 10.0947H16.318Z" fill="#EC0003"/>
<path fill-rule="evenodd" clip-rule="evenodd" d="M31.5366 4.79779V27.4298H34.3296C35.9072 27.4298 36.851 26.6163 36.851 24.3527V7.87585C36.851 5.61274 35.9072 4.79779 34.3296 4.79779H31.5366ZM26.5851 0.271576H34.4177C39.3724 0.271576 41.8052 3.03232 41.8052 8.10277V24.1258C41.8052 29.1948 39.3724 31.9579 34.4177 31.9579H26.5851V0.271576Z" fill="#EC0003"/>
<path fill-rule="evenodd" clip-rule="evenodd" d="M44.9538 0.271576H49.908V31.9579H44.9538V0.271576Z" fill="#EC0003"/>
<path fill-rule="evenodd" clip-rule="evenodd" d="M58.4625 13.6238H65.2631V18.15H58.4625V27.4298H67.0191V31.9579H53.5073V0.271576H67.0191V4.79779H58.4625V13.6238Z" fill="#EC0003"/>
<path fill-rule="evenodd" clip-rule="evenodd" d="M83.8131 0.271576V4.7074L74.4007 27.4298H83.8131V31.9579H69.312V27.5216L78.7245 4.79779H69.7617V0.271576H83.8131Z" fill="#EC0003"/>
<path fill-rule="evenodd" clip-rule="evenodd" d="M92.1851 31.9579V2.17311H85.7442V0.271576H100.65V2.17311H94.2568V31.9579H92.1851Z" fill="#EC0003"/>
<path fill-rule="evenodd" clip-rule="evenodd" d="M114.022 14.9368V16.8384H105.42V30.0559H115.78V31.9579H103.35V0.271576H115.78V2.17311H105.42V14.9368H114.022Z" fill="#EC0003"/>
<path fill-rule="evenodd" clip-rule="evenodd" d="M132.619 8.01057V10.6371H130.638V7.87592C130.638 4.48055 129.33 1.90013 125.864 1.90013C122.395 1.90013 121.091 4.48102 121.091 7.87592V24.3528C121.091 27.7467 122.395 30.281 125.864 30.281C129.33 30.281 130.638 27.7467 130.638 24.3528V20.5959H132.619V24.2163C132.619 28.7891 130.638 32.2287 125.819 32.2287C120.999 32.2287 119.02 28.7891 119.02 24.2163L119.02 8.01057C119.02 3.4401 120.998 0 125.819 0C130.638 0 132.619 3.4401 132.619 8.01057Z" fill="#EC0003"/>
<path fill-rule="evenodd" clip-rule="evenodd" d="M138.063 17.0639V31.9579H135.993V0.271576H138.063V15.1637H147.882V0.271576H150V31.9579H147.882V17.0639H138.063Z" fill="#EC0003"/>
</svg>
