<svg width="60" height="60" viewBox="0 0 60 60" fill="none" xmlns="http://www.w3.org/2000/svg">
<path d="M29.925 56.875C15.125 56.875 3.04999 44.825 3.04999 30C3.04999 15.175 15.125 3.125 29.925 3.125C44.725 3.125 56.8 15.175 56.8 30C56.8 44.825 44.75 56.875 29.925 56.875ZM29.925 6.875C17.175 6.875 6.79999 17.25 6.79999 30C6.79999 42.75 17.175 53.125 29.925 53.125C42.675 53.125 53.05 42.75 53.05 30C53.05 17.25 42.675 6.875 29.925 6.875Z" fill="white"/>
<path d="M26.4 42.4752C25.3 42.4752 24.25 42.2002 23.325 41.6752C21.175 40.4252 19.975 37.9752 19.975 34.7752V26.4002C19.975 23.2002 21.15 20.7502 23.3 19.5002C25.45 18.2502 28.175 18.4502 30.95 20.0502L38.2 24.2252C40.975 25.8252 42.5 28.0752 42.5 30.5752C42.5 33.0502 40.975 35.3252 38.2 36.9252L30.95 41.1002C29.4 42.0252 27.825 42.4752 26.4 42.4752ZM26.4 22.4252C25.95 22.4252 25.525 22.5252 25.2 22.7252C24.25 23.2752 23.725 24.6002 23.725 26.4002V34.7752C23.725 36.5502 24.25 37.9002 25.2 38.4252C26.125 38.9752 27.55 38.7502 29.1 37.8752L36.35 33.7002C37.9 32.8002 38.775 31.6752 38.775 30.6002C38.775 29.5252 37.875 28.4002 36.35 27.5002L29.1 23.3252C28.1 22.7252 27.175 22.4252 26.4 22.4252Z" fill="white"/>
</svg>
