<svg viewBox="0 0 24 24" xmlns="http://www.w3.org/2000/svg">
<path d="M5.24733 18.7528C4.91756 18.4231 4.91756 17.8887 5.24733 17.559L17.5395 5.27161C17.8693 4.94197 18.4039 4.94197 18.7337 5.27161C19.0635 5.60125 19.0635 6.1357 18.7337 6.46534L6.44152 18.7528C6.11175 19.0824 5.57709 19.0824 5.24733 18.7528Z"/>
<path d="M5.2474 5.24723C5.57717 4.91759 6.11183 4.91759 6.4416 5.24723L18.7527 17.5536C19.0824 17.8832 19.0824 18.4176 18.7527 18.7473C18.4229 19.0769 17.8882 19.0769 17.5585 18.7473L5.2474 6.44096C4.91764 6.11132 4.91764 5.57687 5.2474 5.24723Z"/>
</svg>
