<svg viewBox="0 0 19 11" xmlns="http://www.w3.org/2000/svg">
<path fill-rule="evenodd" clip-rule="evenodd" d="M18.5642 0.744857C18.6956 0.315857 18.5642 0 17.9348 0H15.8568C15.3279 0 15.0841 0.272643 14.9519 0.573571C14.9519 0.573571 13.895 3.08471 12.398 4.71586C11.9135 5.18886 11.6935 5.33893 11.4291 5.33893C11.2968 5.33893 11.0981 5.18886 11.0981 4.75907V0.744857C11.0981 0.229429 10.9525 0 10.5123 0H7.24439C6.91427 0 6.71557 0.238857 6.71557 0.465929C6.71557 0.953857 7.46447 1.067 7.54126 2.44043V5.42457C7.54126 6.07907 7.42014 6.19771 7.15572 6.19771C6.45116 6.19771 4.73723 3.67479 3.71996 0.788071C3.52284 0.226286 3.32335 0 2.79215 0H0.712485C0.118747 0 0 0.272643 0 0.573571C0 1.10943 0.704568 3.77143 3.28139 7.29221C4.99927 9.6965 7.41776 11 9.62092 11C10.9422 11 11.1053 10.7109 11.1053 10.2119V8.39457C11.1053 7.8155 11.2303 7.7 11.6491 7.7C11.9579 7.7 12.4859 7.85086 13.7193 9.00978C15.1284 10.384 15.3604 11 16.1536 11H18.2317C18.8254 11 19.1231 10.7109 18.9521 10.1389C18.7637 9.57 18.0908 8.74421 17.1986 7.76443C16.7141 7.20657 15.9874 6.6055 15.7665 6.30457C15.4586 5.91879 15.5464 5.74671 15.7665 5.40336C15.7665 5.40336 18.2998 1.92579 18.5634 0.744857H18.5642Z"/>
</svg>
