<svg xmlns="http://www.w3.org/2000/svg" xmlns:xlink="http://www.w3.org/1999/xlink"><defs><style>
    .sprite-symbol-usage {display: none;}
    .sprite-symbol-usage:target {display: inline;}
  </style><symbol viewBox="0 0 34 34" fill="none" id="icon-arrow-left">
<path d="M13.5575 26.6616C13.2884 26.6616 13.0192 26.5624 12.8067 26.3499L4.20754 17.7508C3.79671 17.3399 3.79671 16.6599 4.20754 16.2491L12.8067 7.64992C13.2175 7.23909 13.8975 7.23909 14.3084 7.64992C14.7192 8.06076 14.7192 8.74076 14.3084 9.15159L6.46004 16.9999L14.3084 24.8483C14.7192 25.2591 14.7192 25.9391 14.3084 26.3499C14.11 26.5624 13.8267 26.6616 13.5575 26.6616Z" fill="#0D0D0D" />
<path d="M29.0417 18.0625H5.19922C4.61839 18.0625 4.13672 17.5808 4.13672 17C4.13672 16.4192 4.61839 15.9375 5.19922 15.9375H29.0417C29.6226 15.9375 30.1042 16.4192 30.1042 17C30.1042 17.5808 29.6226 18.0625 29.0417 18.0625Z" fill="#0D0D0D" />
</symbol><symbol viewBox="0 0 24 24" id="icon-arrow-right">
<path d="M14.43 18.82C14.24 18.82 14.05 18.75 13.9 18.6C13.61 18.31 13.61 17.83 13.9 17.54L19.44 12L13.9 6.46C13.61 6.17 13.61 5.69 13.9 5.4C14.19 5.11 14.67 5.11 14.96 5.4L21.03 11.47C21.32 11.76 21.32 12.24 21.03 12.53L14.96 18.6C14.81 18.75 14.62 18.82 14.43 18.82Z" />
<path d="M20.33 12.75H3.5C3.09 12.75 2.75 12.41 2.75 12C2.75 11.59 3.09 11.25 3.5 11.25H20.33C20.74 11.25 21.08 11.59 21.08 12C21.08 12.41 20.74 12.75 20.33 12.75Z" />
</symbol><symbol viewBox="0 0 8 8" id="icon-arrow-top-right">
<path d="M1.74353 0C1.39003 0 1.10079 0.289235 1.10079 0.642744C1.10079 0.996253 1.39003 1.28549 1.74353 1.28549H5.33653L0.188232 6.37403C-0.0624381 6.6247 -0.0624381 7.02958 0.188232 7.28025C0.438902 7.53092 0.850209 7.53092 1.10088 7.28025L6.24274 2.19178V5.7847C6.24274 6.13821 6.53198 6.42744 6.88549 6.42744C7.239 6.42744 7.52823 6.13821 7.52823 5.7847V0.642744C7.52823 0.289235 7.239 0 6.88549 0H1.74353Z" />
</symbol><symbol viewBox="0 0 24 24" fill="none" id="icon-close">
<path d="M5.24733 18.7528C4.91756 18.4231 4.91756 17.8887 5.24733 17.559L17.5395 5.27161C17.8693 4.94197 18.4039 4.94197 18.7337 5.27161C19.0635 5.60125 19.0635 6.1357 18.7337 6.46534L6.44152 18.7528C6.11175 19.0824 5.57709 19.0824 5.24733 18.7528Z" fill="white" />
<path d="M5.2474 5.24723C5.57717 4.91759 6.11183 4.91759 6.4416 5.24723L18.7527 17.5536C19.0824 17.8832 19.0824 18.4176 18.7527 18.7473C18.4229 19.0769 17.8882 19.0769 17.5585 18.7473L5.2474 6.44096C4.91764 6.11132 4.91764 5.57687 5.2474 5.24723Z" fill="white" />
</symbol><symbol viewBox="0 0 150 33" fill="none" id="icon-logo">
<path fill-rule="evenodd" clip-rule="evenodd" d="M14.5615 10.0947H9.2466L8.21004 20.3689H13.4804L14.5615 10.0947ZM16.318 10.0947L15.2369 20.3689H21.6019L21.4675 21.9074H15.1006L14.0196 31.958H12.2626L13.3437 21.9074H8.03158L6.99596 31.958H5.23901L6.3196 21.9074H0L0.133961 20.3689H6.45356L7.53462 10.0947H1.17005L1.30401 8.55477H7.67139L8.52621 0.225471H10.2827L9.42553 8.55477H14.6955L15.5503 0.225471H17.3068L16.4524 8.55477H22.8198L22.6825 10.0947H16.318Z" fill="#EC0003" />
<path fill-rule="evenodd" clip-rule="evenodd" d="M31.5366 4.79779V27.4298H34.3296C35.9072 27.4298 36.851 26.6163 36.851 24.3527V7.87585C36.851 5.61274 35.9072 4.79779 34.3296 4.79779H31.5366ZM26.5851 0.271576H34.4177C39.3724 0.271576 41.8052 3.03232 41.8052 8.10277V24.1258C41.8052 29.1948 39.3724 31.9579 34.4177 31.9579H26.5851V0.271576Z" fill="#EC0003" />
<path fill-rule="evenodd" clip-rule="evenodd" d="M44.9538 0.271576H49.908V31.9579H44.9538V0.271576Z" fill="#EC0003" />
<path fill-rule="evenodd" clip-rule="evenodd" d="M58.4625 13.6238H65.2631V18.15H58.4625V27.4298H67.0191V31.9579H53.5073V0.271576H67.0191V4.79779H58.4625V13.6238Z" fill="#EC0003" />
<path fill-rule="evenodd" clip-rule="evenodd" d="M83.8131 0.271576V4.7074L74.4007 27.4298H83.8131V31.9579H69.312V27.5216L78.7245 4.79779H69.7617V0.271576H83.8131Z" fill="#EC0003" />
<path fill-rule="evenodd" clip-rule="evenodd" d="M92.1851 31.9579V2.17311H85.7442V0.271576H100.65V2.17311H94.2568V31.9579H92.1851Z" fill="#EC0003" />
<path fill-rule="evenodd" clip-rule="evenodd" d="M114.022 14.9368V16.8384H105.42V30.0559H115.78V31.9579H103.35V0.271576H115.78V2.17311H105.42V14.9368H114.022Z" fill="#EC0003" />
<path fill-rule="evenodd" clip-rule="evenodd" d="M132.619 8.01057V10.6371H130.638V7.87592C130.638 4.48055 129.33 1.90013 125.864 1.90013C122.395 1.90013 121.091 4.48102 121.091 7.87592V24.3528C121.091 27.7467 122.395 30.281 125.864 30.281C129.33 30.281 130.638 27.7467 130.638 24.3528V20.5959H132.619V24.2163C132.619 28.7891 130.638 32.2287 125.819 32.2287C120.999 32.2287 119.02 28.7891 119.02 24.2163L119.02 8.01057C119.02 3.4401 120.998 0 125.819 0C130.638 0 132.619 3.4401 132.619 8.01057Z" fill="#EC0003" />
<path fill-rule="evenodd" clip-rule="evenodd" d="M138.063 17.0639V31.9579H135.993V0.271576H138.063V15.1637H147.882V0.271576H150V31.9579H147.882V17.0639H138.063Z" fill="#EC0003" />
</symbol><symbol viewBox="0 0 60 60" fill="none" id="icon-play">
<path d="M29.925 56.875C15.125 56.875 3.04999 44.825 3.04999 30C3.04999 15.175 15.125 3.125 29.925 3.125C44.725 3.125 56.8 15.175 56.8 30C56.8 44.825 44.75 56.875 29.925 56.875ZM29.925 6.875C17.175 6.875 6.79999 17.25 6.79999 30C6.79999 42.75 17.175 53.125 29.925 53.125C42.675 53.125 53.05 42.75 53.05 30C53.05 17.25 42.675 6.875 29.925 6.875Z" fill="white" />
<path d="M26.4 42.4752C25.3 42.4752 24.25 42.2002 23.325 41.6752C21.175 40.4252 19.975 37.9752 19.975 34.7752V26.4002C19.975 23.2002 21.15 20.7502 23.3 19.5002C25.45 18.2502 28.175 18.4502 30.95 20.0502L38.2 24.2252C40.975 25.8252 42.5 28.0752 42.5 30.5752C42.5 33.0502 40.975 35.3252 38.2 36.9252L30.95 41.1002C29.4 42.0252 27.825 42.4752 26.4 42.4752ZM26.4 22.4252C25.95 22.4252 25.525 22.5252 25.2 22.7252C24.25 23.2752 23.725 24.6002 23.725 26.4002V34.7752C23.725 36.5502 24.25 37.9002 25.2 38.4252C26.125 38.9752 27.55 38.7502 29.1 37.8752L36.35 33.7002C37.9 32.8002 38.775 31.6752 38.775 30.6002C38.775 29.5252 37.875 28.4002 36.35 27.5002L29.1 23.3252C28.1 22.7252 27.175 22.4252 26.4 22.4252Z" fill="white" />
</symbol><symbol viewBox="0 0 18 19" id="icon-tg">
<path d="M16.785 0.120926L0.840489 7.6115C-0.247661 8.14396 -0.241365 8.88349 0.640845 9.21326L4.73445 10.769L14.2058 3.48878C14.6537 3.15682 15.0629 3.3354 14.7265 3.69914L7.05283 12.1363H7.05104L7.05283 12.1374L6.77045 17.2779C7.18413 17.2779 7.36669 17.0468 7.59871 16.774L9.58705 14.4184L13.7229 18.1402C14.4855 18.6518 15.0332 18.3889 15.2229 17.2801L17.9379 1.69201C18.2158 0.334567 17.5126 -0.280062 16.785 0.120926V0.120926Z" />
</symbol><symbol viewBox="0 0 48 66" id="icon-title-sharp">
<path fill-rule="evenodd" clip-rule="evenodd" d="M30.4097 20.527H19.3096L17.1466 41.8971H28.1517L30.4097 20.527ZM34.077 20.527L31.8222 41.8971H45.1115L44.833 45.0957H31.5371L29.2791 66H25.6085L27.8666 45.0957H16.773L14.61 66H10.9395L13.1975 45.0957H0L0.281845 41.8971H13.4794L15.7341 20.527H2.44484L2.72341 17.3251H16.0193L17.8054 0H21.4759L19.6832 17.3251H30.6883L32.4744 0H36.1417L34.3588 17.3251H47.6547L47.3696 20.527H34.077Z" />
</symbol><symbol viewBox="0 0 19 11" id="icon-vk">
<path fill-rule="evenodd" clip-rule="evenodd" d="M18.5642 0.744857C18.6956 0.315857 18.5642 0 17.9348 0H15.8568C15.3279 0 15.0841 0.272643 14.9519 0.573571C14.9519 0.573571 13.895 3.08471 12.398 4.71586C11.9135 5.18886 11.6935 5.33893 11.4291 5.33893C11.2968 5.33893 11.0981 5.18886 11.0981 4.75907V0.744857C11.0981 0.229429 10.9525 0 10.5123 0H7.24439C6.91427 0 6.71557 0.238857 6.71557 0.465929C6.71557 0.953857 7.46447 1.067 7.54126 2.44043V5.42457C7.54126 6.07907 7.42014 6.19771 7.15572 6.19771C6.45116 6.19771 4.73723 3.67479 3.71996 0.788071C3.52284 0.226286 3.32335 0 2.79215 0H0.712485C0.118747 0 0 0.272643 0 0.573571C0 1.10943 0.704568 3.77143 3.28139 7.29221C4.99927 9.6965 7.41776 11 9.62092 11C10.9422 11 11.1053 10.7109 11.1053 10.2119V8.39457C11.1053 7.8155 11.2303 7.7 11.6491 7.7C11.9579 7.7 12.4859 7.85086 13.7193 9.00978C15.1284 10.384 15.3604 11 16.1536 11H18.2317C18.8254 11 19.1231 10.7109 18.9521 10.1389C18.7637 9.57 18.0908 8.74421 17.1986 7.76443C16.7141 7.20657 15.9874 6.6055 15.7665 6.30457C15.4586 5.91879 15.5464 5.74671 15.7665 5.40336C15.7665 5.40336 18.2998 1.92579 18.5634 0.744857H18.5642Z" />
</symbol></defs><use id="icon-arrow-left-usage" xlink:href="#icon-arrow-left" class="sprite-symbol-usage" /><use id="icon-arrow-right-usage" xlink:href="#icon-arrow-right" class="sprite-symbol-usage" /><use id="icon-arrow-top-right-usage" xlink:href="#icon-arrow-top-right" class="sprite-symbol-usage" /><use id="icon-close-usage" xlink:href="#icon-close" class="sprite-symbol-usage" /><use id="icon-logo-usage" xlink:href="#icon-logo" class="sprite-symbol-usage" /><use id="icon-play-usage" xlink:href="#icon-play" class="sprite-symbol-usage" /><use id="icon-tg-usage" xlink:href="#icon-tg" class="sprite-symbol-usage" /><use id="icon-title-sharp-usage" xlink:href="#icon-title-sharp" class="sprite-symbol-usage" /><use id="icon-vk-usage" xlink:href="#icon-vk" class="sprite-symbol-usage" /></svg>