<svg width="146" height="68" viewBox="0 0 146 68" fill="none" xmlns="http://www.w3.org/2000/svg">
<path fill-rule="evenodd" clip-rule="evenodd" d="M0 61.8116H4.85565V44.6987L12.3431 59.6225C13.2319 61.4124 14.4191 62.0427 16.7908 62.0427C19.1634 62.0427 20.3497 61.4124 21.2386 59.6225L28.726 44.6987V61.8116H33.5442V44.7314C33.5442 43.0738 32.8024 42.2763 31.283 41.8452C27.6136 40.8172 25.1297 41.7129 24.0182 43.9353L16.6795 58.6273L9.56342 43.9353C8.48845 41.7129 5.968 40.8172 2.29864 41.8452C0.741847 42.2763 0.000831071 43.0731 0.000831071 44.7314V61.8116H0ZM37.5841 47.8815H42.4024V57.3005C42.3658 57.8305 42.5876 59.0249 45.2568 59.0584C46.5909 59.0903 55.6717 59.0584 55.7456 59.0584V47.848H60.6013C60.6378 47.848 60.6013 63.1361 60.6013 63.203C60.6378 66.9834 55.3751 67.7787 52.966 67.8456H37.6954V64.9274C37.6954 64.9274 52.9294 64.9609 52.966 64.9274C56.0796 64.6621 55.7091 63.2699 55.7091 62.8053V61.677H45.442C40.6603 61.6116 37.6207 59.7534 37.5841 57.5978C37.5841 57.3993 37.6954 47.9818 37.5841 47.8815ZM141.7 37.0368C138.736 36.9706 136.474 37.2026 134.509 37.9652C133.954 38.1644 133.101 38.1644 132.991 38.7947C133.287 39.0586 133.36 39.4904 133.583 39.8561C134.065 40.5199 134.844 41.4141 135.548 41.8786C136.29 42.4101 137.068 42.94 137.883 43.4046C139.366 44.1999 140.996 44.631 142.367 45.4286C143.22 45.8917 144.035 46.49 144.851 47.02C145.221 47.2853 145.518 47.6838 146 47.8488V47.7833C145.741 47.4845 145.666 47.0534 145.443 46.7204L144.332 45.7259C143.258 44.466 141.885 43.3377 140.439 42.4101C139.29 41.6802 136.696 40.6522 136.214 39.4585C136.177 39.425 136.139 39.425 136.139 39.3916C136.955 39.2912 137.919 39.0273 138.66 38.8601C139.922 38.5628 141.07 38.6282 142.366 38.3301C142.96 38.1636 143.553 38.0313 144.147 37.8656V37.5668C143.48 36.9699 143.035 36.1411 142.294 35.6104C140.404 34.1513 138.327 32.7249 136.215 31.5312C135.028 30.8347 133.583 30.4036 132.324 29.8402C131.915 29.6745 131.173 29.5749 130.878 29.2434C130.209 28.5134 129.877 27.5516 129.358 26.6894C128.27 24.7978 127.257 22.873 126.319 20.9185C125.689 19.6251 125.243 18.3318 124.467 17.1373C120.611 11.4994 116.496 8.08399 110.085 4.73397C108.714 4.0375 107.083 3.73944 105.341 3.37448C104.414 3.30759 103.488 3.27488 102.561 3.20798C102.004 3.00878 101.412 2.37921 100.855 2.08041C98.7428 0.886675 93.294 -1.73344 91.7364 1.71545C90.7354 3.871 93.2193 5.99385 94.1081 7.08872C94.7395 7.85134 95.5162 8.71431 95.9623 9.57579C96.2573 10.1392 96.2946 10.7034 96.5547 11.3002C97.1844 12.7928 97.7036 14.4176 98.482 15.7771C98.889 16.4736 99.3335 17.2035 99.8527 17.8338C100.149 18.1987 100.706 18.3645 100.779 18.9614C100.26 19.6244 100.224 20.6197 99.9275 21.4484C98.6298 25.1961 99.1117 29.806 101.039 32.5912C101.633 33.4199 103.004 35.244 104.932 34.5482C106.6 33.9179 106.229 32.0604 106.71 30.3695C106.823 30.0045 106.748 29.7391 106.97 29.4738V29.5399C107.451 30.4683 107.971 31.364 108.49 32.2589C109.601 33.8845 111.603 35.6089 113.309 36.7358C114.16 37.3326 114.865 38.3614 116.014 38.6921V38.6252H115.903C115.681 38.3279 115.347 38.1949 115.088 37.9622C114.42 37.3653 113.679 36.6354 113.123 35.9724C111.604 34.1149 110.233 32.059 108.972 29.9361C108.379 28.9081 107.859 27.7806 107.379 26.7526C107.192 26.3549 107.192 25.758 106.785 25.5254C106.229 26.288 105.452 26.9183 105.005 27.814C104.338 29.2404 104.227 30.9975 104.006 32.7889C103.856 32.855 103.893 32.8216 103.819 32.8885C102.634 32.6231 102.225 31.5282 101.781 30.5999C100.707 28.2451 100.483 24.4647 101.447 21.745C101.706 21.0485 102.857 18.8595 102.375 18.1965C102.15 17.5662 101.447 17.1685 101.04 16.6713C100.521 16.0744 100.039 15.2783 99.6691 14.5819C98.7802 12.7244 98.3715 10.6684 97.407 8.81168C96.9252 7.91601 96.185 7.02034 95.5545 6.25772C94.85 5.36205 94.0716 4.73248 93.5167 3.67106C93.3314 3.3061 93.0722 2.70923 93.3314 2.31083C93.4419 2.04547 93.554 1.94587 93.849 1.84627C94.3308 1.51476 95.7032 1.97932 96.2207 2.14433C97.5557 2.67504 98.7046 3.1396 99.8535 3.83607C100.41 4.16758 100.967 4.79715 101.634 4.96364H102.376C103.562 5.19555 104.895 5.0298 106.007 5.3286C107.971 5.85857 109.75 6.68809 111.345 7.61721C116.237 10.3696 120.204 14.2831 122.946 18.9591C123.391 19.7218 123.576 20.4182 123.947 21.2143C124.727 22.8399 125.726 24.4974 126.504 26.0561C127.246 27.6482 128.025 29.2404 129.099 30.533C129.693 31.2294 131.916 31.5944 132.917 31.9586C133.621 32.224 134.769 32.522 135.438 32.8877C136.735 33.5508 137.958 34.3803 139.181 35.1429C139.773 35.5116 141.625 36.3403 141.7 37.0368Z" fill="#6D6D6D"/>
<path fill-rule="evenodd" clip-rule="evenodd" d="M103.893 8.21729C103.381 8.21743 102.871 8.27334 102.374 8.38378V8.44994H102.485C102.781 8.98065 103.3 9.3456 103.671 9.80942C103.93 10.3401 104.227 10.8708 104.487 11.4016L104.597 11.302C105.116 11.0039 105.339 10.4732 105.339 9.64441C105.154 9.4452 105.116 9.2133 104.932 8.98065C104.672 8.6484 104.227 8.48264 103.893 8.21729Z" fill="#6D6D6D"/>
<path fill-rule="evenodd" clip-rule="evenodd" d="M64.1035 61.5477H78.0025C79.6333 61.5477 81.2266 61.2489 82.4868 60.7174C84.562 59.8567 85.6004 58.6949 85.6004 57.1697V53.9861C85.6004 52.7597 84.4142 51.566 82.1546 50.8026C80.9309 50.3715 79.448 50.1723 78.0025 50.1723H72.1467C70.182 50.1723 69.2557 49.6408 69.0331 48.4813C68.9957 48.349 68.9957 48.2159 68.9957 48.0836V46.1265C68.9957 45.9942 68.9957 45.8946 69.0331 45.7623C69.2557 44.8666 69.7741 44.6013 71.4796 44.469C71.6275 44.469 71.8127 44.4355 71.9614 44.4355H85.7865V41.5508H72.1841C70.2194 41.5508 69.2184 41.6831 68.2921 41.915C65.4011 42.7438 64.1409 44.0044 64.1409 46.2269V48.7474C64.1409 50.7045 66.624 52.362 70.7386 52.7597C71.2204 52.7597 71.6649 52.7931 72.1467 52.7931H77.151C77.3363 52.7931 77.5207 52.7931 77.6686 52.8266C79.2262 52.9589 79.8559 53.1908 80.3377 53.6873C80.5969 53.9527 80.7091 54.1853 80.7091 54.4841V57.0046C80.7091 57.3035 80.4864 57.7019 80.0046 58.0326C79.5959 58.3649 78.8914 58.5641 77.9652 58.6295C77.7799 58.6295 77.6329 58.6629 77.446 58.6629H64.1035V61.5477ZM115.772 56.5052C115.772 59.4902 118.218 61.1478 123.223 61.48C123.667 61.5135 124.149 61.5469 124.593 61.5469H137.196V58.6607H124.519C121.664 58.6607 120.59 58.0304 120.59 56.5052V41.5493H115.771V56.5052H115.772ZM88.6775 56.6709V46.3911C88.6775 43.771 90.7153 42.1796 94.7925 41.6816C95.2013 41.6147 95.6831 41.6147 96.0901 41.6147H105.281C105.726 41.6147 106.135 41.6147 106.616 41.6816C110.656 42.1796 112.731 43.771 112.731 46.3911V56.6709C112.731 58.7945 111.843 59.9213 109.84 60.6513L114.622 64.4986H108.989L105.134 61.4139L101.241 61.6131H96.0893C95.2004 61.6131 94.2733 61.5142 93.2349 61.2489C90.1604 60.5182 88.6775 59.0591 88.6775 56.6709ZM93.9036 56.407C93.9036 56.5728 93.941 56.7044 93.9784 56.8716C94.275 58.0646 95.5344 58.7283 97.4243 58.7283H101.836L97.7965 55.4779H103.43L106.95 58.2972C107.582 57.9984 108.026 57.5339 108.174 56.937C108.211 56.7713 108.211 56.6397 108.211 56.5059V46.6238C108.211 46.5234 108.211 46.3919 108.174 46.2581C107.877 45.1313 106.618 44.5017 104.764 44.5017H97.4251C95.2752 44.5017 93.9045 45.3305 93.9045 46.6238V56.407H93.9036ZM139.42 61.5477H140.125V59.1595H141.089V58.6615H138.457V59.1595H139.42V61.5477ZM144.832 61.5477H145.462V58.6615H144.498L143.646 60.652L142.795 58.6615H141.794V61.5477H142.461V59.3587L143.387 61.5477H143.869L144.795 59.3587H144.833V61.5477H144.832Z" fill="#6D6D6D"/>
<path fill-rule="evenodd" clip-rule="evenodd" d="M2.92626 34.9813L0.219727 23.7717H1.59127L3.14807 31.134C3.33332 31.8967 3.48202 32.6593 3.59334 33.4219L4.07517 31.3325L6.03986 23.771H7.63321L9.11607 29.4423C9.48658 30.8352 9.74577 32.1613 9.93102 33.4219C10.0423 32.6927 10.2276 31.8632 10.4502 30.9683L12.0436 23.7717H13.4525L10.5989 34.9813H9.30133L7.11483 26.458L6.78088 25.1312C6.70694 25.6285 6.59562 26.0603 6.4843 26.458L4.29698 34.9813H2.92626ZM14.3057 29.5427C14.3057 27.619 14.7875 26.1599 15.7138 25.1312C16.6409 24.1032 17.8263 23.606 19.2353 23.606C20.1241 23.606 20.9773 23.8052 21.7183 24.269C22.4593 24.7328 23.0525 25.3966 23.4978 26.2588C23.9057 27.1537 24.1283 28.1817 24.1283 29.4089C24.1283 31.0671 23.7204 32.3939 22.8672 33.4546C21.941 34.6156 20.7181 35.1791 19.2353 35.1791C17.715 35.1791 16.4922 34.5822 15.5659 33.4212C14.7127 32.3285 14.3057 31.0352 14.3057 29.5427ZM15.7138 29.5427C15.7138 30.9356 16.0469 31.997 16.7148 32.7596C17.4193 33.5222 18.2342 33.9207 19.1979 33.9207C20.1989 33.9207 21.0513 33.5222 21.7183 32.7596C22.3854 31.997 22.7194 30.8694 22.7194 29.3769C22.7194 28.3824 22.5715 27.5529 22.2002 26.791C21.941 26.1941 21.5331 25.7296 21.0139 25.398C20.5017 25.0516 19.8765 24.8651 19.2344 24.8673C18.196 24.8673 17.3437 25.2315 16.714 25.9949C16.0469 26.7568 15.7138 27.9505 15.7138 29.5427ZM25.8321 34.9813V23.7717H30.3912C31.3175 23.7717 32.0219 23.8713 32.4672 24.1032C32.949 24.3024 33.3195 24.6339 33.5787 25.1312C33.8753 25.6285 34.024 26.1926 34.024 26.8222C34.024 27.6852 33.8014 28.3482 33.283 28.8789C32.8003 29.4096 32.0967 29.7411 31.1331 29.9069C31.5409 30.1061 31.8001 30.3053 32.0228 30.5037C32.4307 30.9348 32.7646 31.3994 33.0977 31.9294L34.8763 34.9806H33.1717L31.8001 32.6585C31.2444 31.7629 30.8739 31.1333 30.5773 30.8345C30.3181 30.503 30.0581 30.2703 29.7989 30.1707C29.5397 30.0711 29.2057 30.005 28.7613 30.005H27.2045V34.9798H25.8321V34.9813ZM27.2037 28.7131H30.0946C30.7243 28.7131 31.2062 28.647 31.5401 28.5139C31.8732 28.3816 32.1324 28.149 32.3551 27.8836C32.5403 27.5848 32.6143 27.2199 32.6143 26.8222C32.6143 26.2588 32.429 25.8277 32.0585 25.4962C31.688 25.1646 31.1688 24.9989 30.4278 24.9989H27.2028V28.7131H27.2037ZM36.1366 34.9813V23.7717H37.5081V29.3434L42.5864 23.7717H44.4389L40.1025 28.3155L44.6242 34.9813H42.8082L39.1762 29.3434L37.5081 31.1013V34.9813H36.1366ZM45.2547 31.3667L46.5523 31.2671C46.6263 31.864 46.775 32.3612 47.0342 32.6927C47.2568 33.0577 47.6273 33.323 48.0718 33.5215C48.517 33.7534 49.0354 33.853 49.592 33.853C50.4069 33.853 51.0001 33.6538 51.4454 33.323C51.8898 32.9581 52.1124 32.4935 52.1124 31.9301C52.1124 31.5986 52.0385 31.3332 51.8898 31.0679C51.7419 30.836 51.4819 30.6368 51.148 30.471C50.8148 30.3053 50.1104 30.0734 49.0354 29.808C48.0717 29.5426 47.3673 29.2773 46.9594 29.0119C46.5467 28.7754 46.2136 28.4429 45.9957 28.0501C45.7731 27.6517 45.6618 27.1879 45.6618 26.6906C45.6618 25.7615 45.9957 25.0323 46.6254 24.4682C47.2925 23.8713 48.1822 23.606 49.2938 23.606C50.0348 23.606 50.7019 23.7383 51.295 24.0036C51.8508 24.269 52.296 24.6666 52.6292 25.1646C52.9531 25.7166 53.1187 26.3319 53.111 26.9552L51.8134 27.0548C51.776 26.3257 51.5168 25.795 51.1089 25.43C50.6636 25.065 50.1079 24.8993 49.3303 24.8993C48.5511 24.8993 47.9588 25.065 47.5874 25.3639C47.3863 25.5056 47.2248 25.6872 47.1155 25.8944C47.0062 26.1015 46.9522 26.3286 46.9577 26.5576C46.9577 27.0221 47.1064 27.3536 47.403 27.619C47.6987 27.8509 48.3667 28.1163 49.4042 28.3816C50.4418 28.6135 51.1463 28.8462 51.5542 29.0119C52.1847 29.31 52.6657 29.675 52.9623 30.1395C53.2962 30.6041 53.4441 31.1675 53.4441 31.7978C53.4485 32.4144 53.2693 33.0209 52.9249 33.5549C52.5909 34.0857 52.1465 34.4841 51.5534 34.7487C50.9976 35.0467 50.2931 35.1798 49.4774 35.1798C48.2171 35.1798 47.1795 34.8483 46.4385 34.1518C45.6975 33.4553 45.2913 32.527 45.2547 31.3667ZM61.489 34.9813L58.7833 23.7717H60.1548L61.7116 31.134C61.8968 31.8967 62.0447 32.6593 62.1569 33.4219L62.6387 31.3325L64.6026 23.771H66.1967L67.6788 29.4423C68.0271 30.7554 68.2994 32.0837 68.4946 33.4219C68.6059 32.6927 68.7911 31.8632 68.9764 30.9683L70.6071 23.7717H72.0152L69.1616 34.9813H67.864L65.6767 26.458L65.3436 25.1312C65.2696 25.6285 65.1583 26.0603 65.047 26.458L62.8605 34.9813H61.489ZM73.4981 34.9813V23.7717H74.8696V34.9813H73.4981ZM79.8731 34.9813V25.0985H76.5003V23.7717H84.6175V25.0985H81.209V34.9813H79.8731ZM85.9533 34.9813V23.7717H87.324V28.3816H92.6606V23.7717H94.033V34.9813H92.6606V29.7084H87.324V34.9813H85.9533Z" fill="#6D6D6D"/>
</svg>
