<svg width="96" height="100" viewBox="0 0 96 100" fill="none" xmlns="http://www.w3.org/2000/svg">
<g clip-path="url(#clip0_548_9305)">
<path d="M95.6278 59.8752C95.0522 58.1144 93.5443 56.888 91.5943 56.5937C90.6748 56.4551 89.6218 56.5142 88.3757 56.7736C86.2037 57.2262 84.5923 57.3986 83.4163 57.4319C87.8552 49.8626 91.4646 41.2309 93.5425 33.1055C96.9025 19.9671 95.107 13.9817 93.0088 11.2744C87.4562 4.10844 79.3551 0.258827 69.5818 0.141035C64.3682 0.076648 59.7913 1.11632 57.4037 1.86397C55.1807 1.4678 52.7905 1.24661 50.2825 1.2057C45.5811 1.12995 41.4272 2.16508 37.8779 4.29251C35.9129 3.62137 32.7591 2.67525 29.1171 2.07152C20.5514 0.651212 13.6476 1.75792 8.59786 5.36097C2.48311 9.72341 -0.351516 17.303 0.172734 27.889C0.339234 31.25 2.20073 41.4763 5.13173 51.1746C6.81623 56.749 8.61248 61.3781 10.4706 64.9345C13.1057 69.9776 15.9254 72.9474 19.0907 74.0139C20.8649 74.6108 24.0884 75.029 27.4787 72.177C27.9085 72.7027 28.4819 73.225 29.2427 73.7102C30.2091 74.3256 31.3907 74.8286 32.5709 75.1267C36.8237 76.2005 40.8074 75.9319 44.206 74.4268C44.227 75.0373 44.2431 75.6206 44.2566 76.1243C44.2791 76.9413 44.3016 77.7424 44.3312 78.4915C44.5326 83.5569 44.8738 87.4955 45.8848 90.2513C45.9403 90.4028 46.015 90.6339 46.0937 90.8789C46.5981 92.4386 47.4415 95.0497 49.5872 97.0946C51.8091 99.2129 54.4967 99.8625 56.9582 99.8625C58.1927 99.8625 59.3706 99.6989 60.4037 99.4754C64.0862 98.6781 68.2686 97.4639 71.2941 93.1128C74.1546 88.9996 75.5451 82.8043 75.7967 73.0428C75.8293 72.7667 75.8593 72.5031 75.8882 72.252L75.9482 71.7361L76.6221 71.796L76.7957 71.8077C80.5465 71.9804 85.1327 71.1771 87.9493 69.8556C90.175 68.8126 97.3071 65.0095 95.6278 59.8752" fill="white" fill-opacity="0.14"/>
<path d="M89.2148 60.8734C78.0623 63.197 77.2954 59.3834 77.2954 59.3834C89.0704 41.7363 93.9931 19.3358 89.7454 13.8534C78.1564 -1.1015 58.0958 5.97127 57.7609 6.15459L57.6533 6.17428C55.4498 5.71221 52.9842 5.43724 50.2126 5.39141C45.1666 5.30808 41.3386 6.72764 38.4338 8.95242C38.4338 8.95242 2.64756 -5.93776 4.31218 27.6793C4.66618 34.8309 14.4612 81.7925 26.1439 67.6079C30.4141 62.4209 34.5402 58.0354 34.5402 58.0354C36.5892 59.4103 39.0424 60.1117 41.6142 59.8598L41.8141 59.6886C41.7518 60.3325 41.7803 60.9624 41.8939 61.7081C38.8842 65.1044 39.7688 65.7005 33.7523 66.9516C27.6642 68.2188 31.2406 70.4747 33.5757 71.0648C36.4066 71.7795 42.9556 72.7923 47.3806 66.5357L47.2043 67.2496C48.3833 68.2037 49.2113 73.4547 49.0726 78.2152C48.9338 82.9753 48.8412 86.2436 49.7701 88.7963C50.6997 91.3491 51.6256 97.0929 59.5351 95.3813C66.1437 93.9507 69.5686 90.2439 70.0452 84.0604C70.3831 79.6647 71.1484 80.3146 71.1964 76.3843L71.8103 74.5239C72.5179 68.565 71.9228 66.6425 75.9942 67.5367L76.9842 67.6246C79.9804 67.7621 83.9029 67.1375 86.2051 66.0569C91.1618 63.7337 94.1018 59.8542 89.2141 60.8734H89.2148" fill="#6D6D6D"/>
<path d="M40.528 30.8775C39.523 30.7363 38.6129 30.8669 38.1524 31.2192C37.8937 31.4173 37.8134 31.6468 37.7917 31.8047C37.7339 32.2232 38.0242 32.6861 38.2027 32.9247C38.7074 33.6004 39.4447 34.0647 40.1744 34.167C40.2802 34.1821 40.3855 34.1889 40.4902 34.1889C41.707 34.1889 42.8137 33.2318 42.9112 32.5255C43.033 31.6407 41.7614 31.051 40.528 30.8779V30.8775ZM73.822 30.9056C73.726 30.2121 72.5043 30.0144 71.3448 30.1772C70.1868 30.3401 69.064 30.8681 69.1578 31.5631C69.2328 32.1036 70.1991 33.0262 71.3429 33.0262C71.4396 33.0262 71.5371 33.0197 71.6354 33.0057C72.3989 32.8989 72.9591 32.4092 73.2254 32.127C73.6304 31.6968 73.8651 31.2173 73.822 30.9056" fill="white" fill-opacity="0.14"/>
<path d="M92.9258 60.6097C92.5005 59.311 91.1318 58.8932 88.8578 59.3674C82.1059 60.7748 79.6879 59.7999 78.894 59.2095C84.1421 51.1345 88.4595 41.3734 90.7886 32.2663C91.8919 27.9524 92.5013 23.9459 92.5511 20.6804C92.6063 17.0962 92.0018 14.4624 90.7553 12.8535C85.7295 6.3674 78.3533 2.8882 69.4245 2.79275C63.2861 2.72306 58.0999 4.30965 57.0945 4.75581C54.9772 4.22405 52.6691 3.89757 50.1562 3.8559C45.5482 3.78053 41.565 4.89482 38.2672 7.16618C36.8347 6.6276 33.1327 5.34401 28.6054 4.60734C20.7784 3.33474 14.5586 4.29904 10.1201 7.47486C4.82398 11.2646 2.37898 18.039 2.8526 27.6092C3.01198 30.829 4.82848 40.734 7.69498 50.2198C11.4682 62.705 15.57 69.7728 19.8855 71.2268C20.3906 71.3969 20.973 71.5158 21.6154 71.5158C23.1896 71.5158 25.1197 70.7992 27.1279 68.3608C29.5772 65.3932 32.1109 62.4975 34.7257 59.6776C36.4222 60.5972 38.286 61.1108 40.1921 61.1623C40.1959 61.2127 40.2007 61.2631 40.2052 61.313C39.8771 61.7082 39.5558 62.1091 39.2415 62.5156C37.9207 64.209 37.6459 64.5616 33.3945 65.4456C32.1851 65.6978 28.9732 66.3663 28.926 68.6403C28.875 71.1249 32.7229 72.1684 33.1612 72.279C34.689 72.6653 36.1609 72.8558 37.5645 72.8558C40.9781 72.8558 43.9822 71.7226 46.383 69.53C46.3091 78.3875 46.6747 87.1154 47.7277 89.7746C48.5902 91.9517 50.697 97.272 57.3517 97.2716C58.3282 97.2716 59.403 97.1568 60.5854 96.9008C67.5307 95.3971 70.5469 92.2967 71.7135 85.4614C72.3379 81.8083 73.4093 73.0854 73.9133 68.4063C74.9768 68.7415 76.3459 68.8949 77.826 68.8945C80.913 68.8945 84.4751 68.232 86.709 67.1848C89.2185 66.0076 93.747 63.1193 92.9258 60.6097V60.6097ZM76.386 28.9917C76.3631 30.373 76.1749 31.627 75.9754 32.936C75.7605 34.3438 75.5385 35.7993 75.4826 37.5662C75.4275 39.2857 75.6401 41.0734 75.8456 42.8024C76.2611 46.2945 76.6875 49.8896 75.0371 53.4369C74.763 52.9463 74.5188 52.4392 74.3059 51.9185C74.1008 51.4163 73.6552 50.6096 73.0384 49.493C70.6387 45.1465 65.0194 34.9679 67.896 30.8146C68.7529 29.5783 70.9275 28.3072 76.386 28.9917V28.9917ZM69.7695 5.58982C77.7698 5.76821 84.0983 8.79102 88.5788 14.5738C92.0153 19.0093 88.2311 39.1918 77.2763 56.6033C77.1661 56.4618 77.0553 56.3208 76.944 56.1802L76.8052 56.0052C79.6361 51.2834 79.0826 46.6115 78.5899 42.4695C78.3874 40.7696 78.1961 39.1641 78.2449 37.6559C78.2951 36.0576 78.5044 34.6865 78.7069 33.3609C78.9555 31.7274 79.2086 30.037 79.1389 28.0444C79.191 27.8353 79.212 27.5884 79.1846 27.2952C79.0065 25.3844 76.8465 19.6657 72.444 14.4897C70.0358 11.6585 66.5239 8.49029 61.7287 6.35338C63.7912 5.92161 66.6116 5.519 69.7695 5.58982V5.58982ZM25.0027 66.5762C22.7902 69.263 21.2625 68.7479 20.76 68.579C17.4862 67.4761 13.6875 60.4874 10.3384 49.4051C7.44035 39.8159 5.74685 30.1734 5.6126 27.4695C5.1896 18.918 7.24198 12.9584 11.7131 9.75569C18.9896 4.54409 30.9529 7.66348 35.76 9.24552C35.691 9.31445 35.619 9.37884 35.5507 9.44891C27.6622 17.4951 27.8494 31.2422 27.8689 32.0826C27.8681 32.4068 27.8951 32.8659 27.9319 33.4973C28.0676 35.8095 28.3204 40.1129 27.6454 44.9863C27.0184 49.515 28.4006 53.9475 31.437 57.1476C31.7486 57.4753 32.0761 57.7873 32.4184 58.0823C31.0669 59.5443 28.1295 62.7773 25.0027 66.5762V66.5762ZM33.4324 55.2163C30.9851 52.637 29.8736 49.0495 30.3825 45.3726C31.095 40.2246 30.8321 35.741 30.6907 33.3321C30.6709 32.995 30.6532 32.6996 30.6431 32.4667C31.7955 31.4346 37.1359 28.5447 40.9444 29.4261C42.6821 29.8279 43.7411 31.0233 44.1814 33.0791C46.4599 43.7231 44.4829 48.1594 42.8944 51.7246C42.567 52.459 42.2576 53.1533 41.9936 53.8714L41.7889 54.4266C41.2706 55.8303 40.7884 57.1354 40.4895 58.3747C37.8877 58.3671 35.3569 57.2445 33.4324 55.2159V55.2163ZM33.8317 69.5709C33.072 69.3793 32.3887 69.0464 31.9879 68.7703C32.3227 68.6112 32.9186 68.3945 33.9521 68.1794C38.9535 67.1397 39.726 66.4057 41.4127 64.2427C41.7994 63.7465 42.2377 63.1844 42.8449 62.4997L42.8456 62.4989C43.7497 61.4763 44.1634 61.6498 44.9134 61.9641C45.5212 62.2179 46.1134 62.9875 46.3534 63.8344C46.467 64.2343 46.5945 64.9934 46.1771 65.5842C42.6536 70.567 37.5191 70.503 33.8317 69.5709V69.5709ZM60.0064 94.1715C53.8879 95.4956 51.7215 92.3425 50.2939 88.738C49.3725 86.4109 48.9195 75.9173 49.2409 64.3287C49.245 64.1745 49.2232 64.0257 49.1812 63.8855C49.1437 63.6088 49.0865 63.3351 49.0102 63.0667C48.5325 61.3805 47.3681 59.97 45.9712 59.3852C45.4162 59.153 44.3977 58.7269 43.1737 59.0432C43.4347 57.9569 43.8874 56.7302 44.3782 55.4019L44.5841 54.8432C44.8159 54.2134 45.1069 53.5608 45.4144 52.8699C47.0767 49.14 49.3534 44.0311 46.8825 32.4894C45.957 28.1664 42.8662 26.0552 38.181 26.5457C35.3722 26.8392 32.8024 27.9838 31.5206 28.6402C31.245 28.7811 30.993 28.9174 30.7575 29.05C31.1152 24.6944 32.4667 16.5543 37.5225 11.404C40.7059 8.16191 44.9452 6.56056 50.1105 6.64691C60.288 6.81508 66.8145 12.0903 70.4977 16.4865C73.6718 20.2743 75.3904 24.0902 76.0762 26.1484C70.9181 25.6185 67.41 26.6468 65.6317 29.2147C61.7629 34.8005 67.7482 45.6419 70.6249 50.8523C71.1525 51.8072 71.6077 52.6325 71.751 52.9832C72.6877 55.2762 73.9005 56.8071 74.7859 57.9244C75.0574 58.2668 75.3206 58.5989 75.5209 58.889C73.9586 59.3439 71.1525 60.395 71.4082 65.6486C71.202 68.2847 69.7354 80.6266 68.9902 84.9872C68.0066 90.748 65.9077 92.8936 60.0064 94.1719V94.1715ZM85.5454 64.6532C83.9479 65.402 81.2745 65.9637 78.735 66.0845C75.93 66.2171 74.502 65.7671 74.166 65.4903C74.0085 62.2164 75.2149 61.8744 76.4917 61.5123C76.6924 61.4555 76.8881 61.3998 77.0771 61.3331C77.1945 61.4297 77.3231 61.5255 77.4641 61.6195C79.7186 63.1223 83.7398 63.2844 89.4169 62.1008L89.4791 62.0883C88.7134 62.8114 87.4031 63.7817 85.5454 64.6532Z" fill="white" fill-opacity="0.14"/>
</g>
<defs>
<clipPath id="clip0_548_9305">
<rect width="96" height="100" fill="white"/>
</clipPath>
</defs>
</svg>
