<svg width="100" height="66" viewBox="0 0 100 66" fill="none" xmlns="http://www.w3.org/2000/svg">
<g clip-path="url(#clip0_548_9277)">
<path d="M97.7998 0.00170817C96.257 0.051014 96.7448 0.492826 93.4111 1.30812C90.0446 2.13157 85.9325 1.87883 82.3075 3.39023C71.4858 7.90152 69.3146 23.3195 59.4768 28.8425C52.1232 32.971 44.704 33.3003 38.0339 35.3781C33.6504 36.7443 28.8551 39.5462 24.8836 42.9483C21.8011 45.5895 21.7206 47.9123 18.4994 51.2255C15.0545 54.7689 4.80659 51.2853 0.162109 56.7089C1.65806 58.2125 2.31425 58.6338 5.26241 58.2436C4.65231 59.3935 1.05382 60.3626 1.75805 62.0545C2.49939 63.8346 11.1986 65.0412 19.1068 60.2958C22.7897 58.0856 25.7234 54.8997 31.4588 54.1396C38.8811 53.1562 47.4319 54.7701 56.0244 56.0019C54.7503 59.7779 52.1924 62.289 50.1433 65.2963C49.5086 65.9757 51.4178 66.0518 53.5957 65.6414C57.5133 64.6786 60.3365 63.9029 63.2933 62.1923C66.9257 60.0904 67.4765 54.7021 71.9331 53.5359C74.416 57.3297 81.1701 58.2257 85.3607 55.1913C81.6833 54.1566 80.667 46.3764 81.9083 42.9483C83.084 39.7026 84.246 34.5119 85.4302 30.2219C86.7016 25.6151 87.1703 19.8083 88.7088 17.4614C91.0239 13.9308 93.5814 12.7184 95.8019 10.7275C98.0228 8.73623 100.055 6.79854 99.9886 2.2426C99.9671 0.775073 99.2036 -0.0425507 97.7998 0.00170817Z" fill="#6D6D6D"/>
<path d="M3.35649 61.7292C8.988 62.5313 12.4127 61.7292 16.9349 59.7802C20.783 58.1213 24.499 54.7017 29.0431 53.252C35.7163 51.1237 43.0344 53.2548 50.1681 53.6799C51.9054 53.7835 53.6315 53.7847 55.3352 53.6003C57.9924 51.9767 57.9377 45.9043 60.5242 45.348C60.448 53.8678 56.9339 58.9727 53.2588 63.9157C61.0042 62.5561 65.6393 58.1031 68.7699 52.1557C69.7198 50.3523 70.5306 48.4123 71.2478 46.3787C72.3567 47.2247 71.7282 49.7983 72.2856 51.1929C77.6206 48.2388 80.6754 41.4975 82.6986 34.6793C85.0391 26.7884 85.9972 18.7981 87.5068 16.4633C88.9801 14.1843 91.2728 12.7797 93.3656 11.3207C95.7443 9.66179 97.8652 7.93298 98.2316 4.77235C95.7236 4.54174 95.1436 3.96483 94.7725 2.7085C93.5168 3.41198 92.3622 3.56261 91.0576 3.60144C89.9257 3.6356 88.6821 3.58552 87.1631 3.74043C74.6018 5.02277 73.0054 18.7845 64.9542 26.5857C64.3605 27.1573 63.7296 27.6896 63.0657 28.1791C60.2457 30.2678 56.7866 31.7601 53.6057 32.9687C48.4566 34.9242 43.5613 35.0632 38.7305 36.7513C35.184 37.9901 31.5804 39.7873 28.6678 41.7688C27.9644 42.2447 27.2818 42.7503 26.6219 43.2841C24.9127 44.674 23.7905 46.2165 22.7055 47.8032C21.586 49.4376 20.5053 51.1199 18.8578 52.7268C16.1885 55.3318 6.21443 53.4865 2.70304 55.9025C2.31167 56.1712 2.00076 56.4938 1.78906 56.8813C3.70529 57.7467 4.98486 57.2155 7.18895 57.4578C7.47798 59.5368 2.64172 60.7722 3.35649 61.7296V61.7292ZM79.4591 46.7534C79.6091 49.1383 81.0019 53.8697 82.2315 55.0201C79.8231 55.6024 75.6747 54.6404 74.6103 52.9519C75.1572 50.5138 78.003 48.2854 79.4591 46.7534Z" fill="white" fill-opacity="0.09"/>
<path d="M82.9873 8.90403C84.7653 10.4383 88.4965 9.20685 87.8298 6.15377C85.0668 5.92627 83.4662 6.85842 82.9873 8.90403ZM95.3842 5.33576C94.9116 6.32188 94.0058 7.59335 94.0058 10.1033C94.0019 10.5342 93.6765 10.8297 93.6711 10.1654C93.6957 7.71176 94.3487 6.65149 95.0428 5.25773C95.3654 4.68663 95.5595 4.92229 95.3842 5.33576Z" fill="#6D6D6D"/>
<path d="M94.9078 4.96454C94.3497 5.90524 93.0064 7.62162 92.7842 10.1222C92.7432 10.5509 92.3924 10.8164 92.4455 10.1537C92.6877 7.71247 93.7614 6.18438 94.5762 4.85623C94.9461 4.31619 95.1199 4.56777 94.9078 4.96454ZM94.4735 4.47226C93.838 5.36287 91.7698 7.42401 91.3374 9.89785C91.2597 10.321 90.8879 10.5571 90.9972 9.90095C91.4448 7.48807 93.2275 5.59154 94.1516 4.33715C94.5657 3.82857 94.7172 4.09451 94.4735 4.47226ZM94.086 3.9233C93.331 4.71607 90.8656 7.34443 90.0883 9.73285C89.9508 10.1409 89.5493 10.323 89.7509 9.68859C90.5348 7.36228 92.694 4.85623 93.7864 3.74393C94.2688 3.29863 94.3809 3.58281 94.086 3.9233Z" fill="#6D6D6D"/>
</g>
<defs>
<clipPath id="clip0_548_9277">
<rect width="100" height="66" fill="white"/>
</clipPath>
</defs>
</svg>
