<svg width="96" height="100" viewBox="0 0 96 100" fill="none" xmlns="http://www.w3.org/2000/svg">
<g clip-path="url(#clip0_548_9330)">
<path d="M95.7752 22.8155C95.8108 22.948 95.8289 23.0847 95.8293 23.2219V44.556C95.8293 44.8299 95.7575 45.0988 95.6213 45.3358C95.4851 45.5727 95.2892 45.7692 95.0534 45.9055L77.2806 56.2148V76.6486C77.2806 77.2047 76.9873 77.718 76.5086 77.998L39.4094 99.5149C39.3245 99.5636 39.2318 99.5947 39.1392 99.6277C39.1045 99.6394 39.0716 99.6608 39.035 99.6705C38.7756 99.7393 38.503 99.7393 38.2437 99.6705C38.2012 99.6588 38.1626 99.6355 38.1221 99.6199C38.0372 99.5888 37.9484 99.5616 37.8674 99.5149L0.775836 77.998C0.540205 77.8617 0.344418 77.6651 0.208211 77.4282C0.072003 77.1913 0.000186701 76.9224 0 76.6486L0 12.6462C0 12.5062 0.0192994 12.3701 0.0540383 12.2379C0.065618 12.1932 0.0926372 12.1524 0.108077 12.1076C0.137026 12.026 0.164045 11.9424 0.206504 11.8665C0.235453 11.816 0.277911 11.7751 0.31265 11.7285C0.357039 11.6663 0.397568 11.6021 0.449676 11.5476C0.494065 11.5029 0.551963 11.4699 0.602141 11.431C0.65811 11.3843 0.708288 11.3338 0.771976 11.2968H0.773906L19.3206 0.538368C19.5555 0.402222 19.8217 0.330566 20.0926 0.330566C20.3636 0.330566 20.6297 0.402222 20.8646 0.538368L39.4113 11.2968H39.4152C39.4769 11.3357 39.529 11.3843 39.585 11.429C39.6352 11.4679 39.6912 11.5029 39.7355 11.5457C39.7896 11.6021 39.8282 11.6663 39.8745 11.7285C39.9073 11.7751 39.9517 11.816 39.9787 11.8665C40.0231 11.9443 40.0482 12.026 40.0791 12.1076C40.0945 12.1524 40.1215 12.1932 40.1331 12.2399C40.1686 12.3724 40.1868 12.509 40.1872 12.6462V52.6215L55.6421 43.6558V23.22C55.6421 23.0839 55.6614 22.9458 55.6962 22.8155C55.7097 22.7689 55.7348 22.728 55.7502 22.6833C55.7811 22.6017 55.8081 22.518 55.8505 22.4422C55.8795 22.3917 55.922 22.3508 55.9548 22.3042C56.0011 22.2419 56.0397 22.1778 56.0937 22.1233C56.1381 22.0786 56.1941 22.0455 56.2443 22.0067C56.3022 21.96 56.3523 21.9094 56.4141 21.8725H56.416L74.9647 11.114C75.1995 10.9777 75.4657 10.9059 75.7367 10.9059C76.0076 10.9059 76.2739 10.9777 76.5086 11.114L95.0554 21.8725C95.121 21.9114 95.1712 21.96 95.2291 22.0047C95.2773 22.0436 95.3333 22.0786 95.3777 22.1214C95.4317 22.1778 95.4703 22.2419 95.5166 22.3042C95.5514 22.3508 95.5938 22.3917 95.6208 22.4422C95.6652 22.518 95.6903 22.6017 95.7212 22.6833C95.7386 22.728 95.7636 22.7689 95.7752 22.8155ZM92.7375 43.6558V25.9149L86.2471 29.6793L77.2806 34.8806V52.6215L92.7394 43.6558H92.7375ZM74.1908 75.7484V57.9958L65.3709 63.0708L40.1852 77.5528V95.4725L74.1908 75.7484ZM3.09176 15.3393V75.7484L37.0935 95.4706V77.5547L19.3303 67.4263L19.3245 67.4224L19.3168 67.4185C19.2569 67.3835 19.2068 67.3329 19.1508 67.2901C19.1026 67.2513 19.0466 67.2202 19.0041 67.1774L19.0003 67.1715C18.9501 67.1229 18.9153 67.0627 18.8729 67.0082C18.8343 66.9557 18.788 66.911 18.7571 66.8565L18.7552 66.8507C18.7204 66.7924 18.6992 66.7224 18.6741 66.6563C18.649 66.5979 18.6162 66.5435 18.6008 66.4813V66.4793C18.5815 66.4054 18.5776 66.3277 18.5699 66.2518C18.5622 66.1935 18.5467 66.1352 18.5467 66.0768V24.305L9.58216 19.1017L3.09176 15.3412V15.3393ZM20.0945 3.68443L4.64151 12.6462L20.0907 21.6081L35.5418 12.6443L20.0907 3.68443H20.0945ZM28.1308 59.6136L37.0954 54.4142V15.3393L30.605 19.1036L21.6385 24.305V63.3799L28.1308 59.6136ZM75.7367 14.2601L60.2856 23.2219L75.7367 32.1837L91.1858 23.22L75.7367 14.2601ZM74.1908 34.8806L65.2243 29.6793L58.7339 25.9149V43.6558L67.6985 48.8551L74.1908 52.6215V34.8806ZM38.6374 74.8598L61.3007 61.8244L72.6295 55.3106L57.1899 46.3546L39.4132 56.6659L23.2114 66.0632L38.6374 74.8598Z" fill="#6D6D6D"/>
</g>
<defs>
<clipPath id="clip0_548_9330">
<rect width="96" height="100" fill="white"/>
</clipPath>
</defs>
</svg>
