<?xml version="1.0" standalone="no"?>
<!DOCTYPE svg PUBLIC "-//W3C//DTD SVG 20010904//EN"
 "http://www.w3.org/TR/2001/REC-SVG-20010904/DTD/svg10.dtd">
<svg version="1.0" xmlns="http://www.w3.org/2000/svg"
 width="700.000000pt" height="700.000000pt" viewBox="0 0 700.000000 700.000000"
 preserveAspectRatio="xMidYMid meet">
<metadata>
Created by potrace 1.14, written by Peter Selinger 2001-2017
</metadata>
<g transform="translate(0.000000,700.000000) scale(0.100000,-0.100000)"
fill="#000000" stroke="none">
<path d="M2860 6989 c0 -5 -43 -416 -95 -912 -52 -495 -95 -905 -95 -909 0 -4
-319 -8 -708 -8 l-709 0 -11 -138 c-7 -76 -12 -152 -12 -170 l0 -32 705 0
c557 0 705 -3 705 -12 0 -23 -231 -2202 -236 -2225 l-4 -23 -700 0 c-385 0
-700 -1 -700 -2 0 -2 -7 -75 -15 -163 -8 -88 -15 -163 -15 -167 0 -5 316 -8
701 -8 l701 0 -6 -42 c-3 -24 -55 -502 -116 -1063 -60 -561 -112 -1041 -116
-1068 l-6 -47 196 0 c108 0 196 2 196 4 0 12 220 2137 225 2174 l6 42 584 0
c321 0 586 -3 588 -7 2 -5 -50 -492 -114 -1083 -65 -591 -118 -1087 -119
-1102 l0 -28 195 0 c179 0 195 1 195 18 0 26 230 2153 235 2180 l5 22 705 0
c388 0 705 1 705 3 4 29 30 316 30 325 0 9 -148 12 -706 12 l-706 0 6 43 c3
23 55 512 116 1087 60 575 112 1064 115 1087 l6 43 707 2 707 3 12 130 c6 72
12 147 12 168 l1 37 -705 0 c-388 0 -705 3 -705 6 0 16 181 1764 186 1797 l6
37 -195 0 -195 0 -6 -37 c-5 -33 -186 -1781 -186 -1797 0 -3 -263 -6 -585 -6
l-586 0 6 33 c5 32 185 1776 185 1796 0 8 -62 11 -195 11 -131 0 -195 -3 -195
-11z m1335 -2211 c-3 -24 -55 -511 -115 -1083 -60 -572 -112 -1061 -116 -1087
l-6 -48 -585 0 -585 0 6 48 c3 26 53 520 111 1097 58 578 108 1065 111 1083
l5 32 590 0 590 0 -6 -42z"/>
</g>
</svg>
